<?xml version="1.0" standalone="no"?>
<!DOCTYPE svg PUBLIC "-//W3C//DTD SVG 20010904//EN"
 "http://www.w3.org/TR/2001/REC-SVG-20010904/DTD/svg10.dtd">
<svg version="1.0" xmlns="http://www.w3.org/2000/svg"
 width="225.000000pt" height="225.000000pt" viewBox="0 0 225.000000 225.000000"
 preserveAspectRatio="xMidYMid meet">
<metadata>
Created by potrace 1.14, written by Peter Selinger 2001-2017
</metadata>
<g transform="translate(0.000000,225.000000) scale(0.100000,-0.100000)"
fill="#000000" stroke="none">
<path d="M0 1125 l0 -1125 1125 0 1125 0 0 1125 0 1125 -1125 0 -1125 0 0
-1125z m968 788 c65 -48 67 -56 72 -280 6 -233 6 -233 89 -233 78 0 81 6 81
209 0 97 5 192 10 211 11 41 61 94 103 109 42 16 87 14 87 -4 0 -8 -7 -15 -15
-15 -9 0 -27 -11 -40 -25 l-25 -24 0 -505 c0 -445 2 -506 16 -520 8 -9 24 -16
35 -16 10 0 19 -4 19 -10 0 -6 -47 -10 -120 -10 -73 0 -120 4 -120 10 0 6 4
10 9 10 5 0 17 7 25 16 14 13 16 50 16 252 0 130 -4 242 -8 248 -26 40 -102
45 -137 9 l-25 -24 0 -228 c0 -191 3 -232 16 -251 8 -12 22 -22 30 -22 8 0 14
-4 14 -10 0 -6 -47 -10 -120 -10 -73 0 -120 4 -120 10 0 6 8 10 17 10 9 0 25
7 35 17 17 15 18 44 18 514 l0 497 -26 31 c-14 17 -34 31 -45 31 -11 0 -19 7
-19 16 0 14 9 16 51 12 28 -3 62 -14 77 -25z m-350 -1235 c7 -7 12 -31 12 -55
0 -32 4 -43 15 -43 11 0 15 11 15 43 0 38 13 67 30 67 3 0 4 -52 2 -115 -3
-92 -6 -115 -18 -115 -10 0 -14 14 -14 55 0 42 -3 55 -15 55 -12 0 -15 -13
-15 -55 0 -41 -4 -55 -14 -55 -12 0 -15 23 -18 115 -2 63 -1 115 3 115 3 0 10
-5 17 -12z m192 -8 c12 -22 5 -44 -11 -34 -5 3 -7 15 -3 26 5 16 2 19 -13 16
-26 -5 -31 -77 -7 -95 17 -12 17 -13 0 -13 -25 0 -19 -93 7 -98 10 -2 17 3 17
12 0 9 5 16 10 16 7 0 7 -6 0 -20 -7 -14 -21 -20 -43 -20 l-32 0 0 115 0 115
32 0 c22 0 36 -6 43 -20z m118 8 c7 -7 12 -28 12 -48 0 -20 -5 -41 -12 -48 -8
-8 -9 -12 -1 -12 6 0 13 -24 15 -55 3 -47 0 -55 -14 -55 -15 0 -18 9 -18 55 0
42 -3 55 -15 55 -12 0 -15 -13 -15 -55 0 -41 -4 -55 -14 -55 -11 0 -15 18 -18
75 l-3 74 22 -14 c36 -24 43 -18 43 35 0 37 -4 50 -14 50 -8 0 -16 -12 -18
-27 -4 -23 -6 -25 -12 -10 -16 34 34 63 62 35z m80 -1 c6 -7 12 -58 14 -115 3
-90 1 -102 -14 -102 -15 0 -17 15 -20 115 -2 63 0 115 3 115 4 0 11 -6 17 -13z
m145 6 c-22 -4 -23 -8 -23 -114 0 -90 -3 -109 -15 -109 -12 0 -15 19 -15 109
0 106 -1 110 -22 114 -13 2 4 4 37 4 33 0 50 -2 38 -4z m105 -2 c8 -5 17 -41
23 -87 5 -43 11 -91 14 -106 3 -20 0 -28 -10 -28 -10 0 -15 10 -15 30 0 23 -4
30 -20 30 -16 0 -20 -7 -20 -30 0 -16 -4 -30 -8 -30 -5 0 -4 35 0 77 9 82 22
117 17 44 -2 -29 1 -46 9 -49 14 -4 16 29 6 102 -4 29 -12 46 -20 46 -8 0 -14
-9 -14 -19 0 -11 -4 -23 -10 -26 -11 -7 -14 38 -3 48 9 9 35 8 51 -2z m111 -5
c7 -8 21 -43 31 -78 l18 -63 1 61 c1 39 7 67 17 80 14 17 15 17 10 1 -3 -10
-6 -64 -6 -119 0 -123 -13 -126 -52 -12 l-28 79 3 -83 c1 -45 -1 -82 -5 -82
-4 0 -8 52 -10 115 -2 63 0 115 3 115 4 0 12 -6 18 -14z m180 -4 c6 -11 6 -24
0 -33 -8 -14 -11 -10 -13 21 -1 8 -8 15 -16 15 -20 0 -27 -189 -8 -213 12 -16
11 -16 -12 -1 -23 15 -25 23 -28 107 -2 72 0 93 13 106 22 21 52 20 64 -2z
m111 3 c7 -9 9 -22 4 -32 -6 -15 -8 -13 -12 10 -4 29 -26 37 -36 11 -12 -31
-6 -75 10 -81 15 -5 15 -7 0 -15 -16 -9 -21 -52 -10 -82 9 -23 33 -20 44 7 5
13 9 16 9 7 1 -24 -20 -40 -53 -40 l-31 0 0 115 0 115 31 0 c17 0 37 -7 44
-15z m-107 -195 c-3 -11 -9 -20 -13 -20 -5 0 -6 9 -3 20 3 11 9 20 13 20 5 0
6 -9 3 -20z m-803 -110 c0 -15 7 -20 25 -20 19 0 25 5 25 21 0 11 5 17 10 14
6 -3 10 -26 10 -51 0 -24 -4 -44 -10 -44 -5 0 -10 11 -10 25 0 20 -5 25 -25
25 -20 0 -25 -5 -25 -25 0 -14 -4 -25 -10 -25 -5 0 -10 23 -10 50 0 28 5 50
10 50 6 0 10 -9 10 -20z m205 0 c15 -16 17 -26 9 -48 -8 -23 -15 -27 -49 -27
-34 0 -41 4 -49 27 -12 33 14 68 49 68 12 0 30 -9 40 -20z m115 10 c0 -5 -7
-10 -15 -10 -11 0 -15 -11 -15 -40 0 -22 -4 -40 -10 -40 -5 0 -10 18 -10 40 0
22 -4 40 -10 40 -5 0 -10 5 -10 10 0 6 16 10 35 10 19 0 35 -4 35 -10z m90 0
c0 -5 -9 -10 -20 -10 -11 0 -20 -4 -20 -10 0 -5 9 -10 20 -10 11 0 20 -4 20
-10 0 -5 -9 -10 -20 -10 -27 0 -25 -18 3 -30 21 -8 21 -9 -5 -9 -27 -1 -28 1
-28 49 0 47 2 50 25 50 14 0 25 -4 25 -10z m70 -34 c0 -34 4 -46 18 -49 10 -3
6 -5 -10 -6 -27 -1 -28 1 -28 49 0 28 5 50 10 50 6 0 10 -20 10 -44z m125 34
c3 -5 -3 -10 -14 -10 -27 0 -27 -17 0 -25 31 -10 21 -49 -13 -53 -16 -2 -28 2
-28 8 0 7 8 9 20 5 27 -9 26 12 -2 34 -13 11 -19 24 -15 34 7 19 42 23 52 7z
m150 0 c4 -6 1 -17 -5 -25 -14 -17 -5 -36 15 -29 9 4 13 -1 12 -15 -1 -17 -8
-21 -38 -21 -40 0 -51 13 -38 45 4 11 10 28 13 38 6 19 31 23 41 7z m-717
-154 c2 -10 -2 -22 -9 -27 -10 -6 -9 -12 5 -28 23 -25 10 -28 -16 -4 -17 15
-18 15 -18 0 0 -10 -4 -17 -10 -17 -5 0 -10 23 -10 51 0 49 1 50 27 47 18 -2
29 -10 31 -22z m117 14 c-3 -5 -13 -10 -21 -10 -8 0 -14 -4 -14 -10 0 -5 9
-10 21 -10 12 0 17 -4 14 -11 -4 -6 -13 -8 -21 -5 -9 3 -14 -2 -14 -14 0 -12
5 -17 14 -14 8 3 17 1 21 -5 4 -7 -5 -11 -24 -11 -30 0 -31 1 -31 50 0 49 1
50 31 50 17 0 28 -4 24 -10z m111 -2 c5 -8 2 -9 -9 -5 -25 9 -31 -11 -7 -25
11 -7 20 -23 20 -35 0 -19 -6 -23 -30 -23 -16 0 -30 5 -30 11 0 6 7 8 16 5 31
-12 36 7 8 29 -18 14 -25 27 -21 38 7 19 42 23 53 5z m152 0 c7 -7 12 -24 12
-38 0 -33 -17 -50 -50 -50 -33 0 -50 17 -50 50 0 33 17 50 50 50 14 0 31 -5
38 -12z m130 -12 c2 -10 -2 -22 -9 -27 -10 -6 -9 -12 5 -28 23 -25 10 -28 -16
-4 -17 15 -18 15 -18 0 0 -10 -4 -17 -10 -17 -5 0 -10 23 -10 51 0 49 1 50 27
47 18 -2 29 -10 31 -22z m122 14 c0 -5 -7 -10 -15 -10 -11 0 -15 -11 -15 -40
0 -23 -5 -40 -11 -40 -7 0 -10 15 -7 40 2 28 0 40 -9 40 -7 0 -13 5 -13 10 0
6 16 10 35 10 19 0 35 -4 35 -10z m106 -2 c5 -8 0 -9 -14 -6 -28 8 -28 -9 0
-31 27 -23 18 -51 -17 -51 -14 0 -25 5 -25 11 0 6 7 9 15 6 25 -10 28 13 4 32
-14 11 -20 24 -16 34 7 19 42 23 53 5z"/>
<path d="M883 354 c-8 -22 10 -49 32 -49 10 0 22 7 28 16 15 24 1 49 -28 49
-15 0 -28 -7 -32 -16z"/>
<path d="M1466 322 c-3 -6 -1 -14 5 -17 15 -10 25 3 12 16 -7 7 -13 7 -17 1z"/>
<path d="M750 220 c0 -5 5 -10 10 -10 6 0 10 5 10 10 0 6 -4 10 -10 10 -5 0
-10 -4 -10 -10z"/>
<path d="M1101 211 c-8 -15 -7 -23 5 -35 26 -27 58 -12 52 25 -4 31 -42 38
-57 10z"/>
<path d="M1260 220 c0 -5 5 -10 10 -10 6 0 10 5 10 10 0 6 -4 10 -10 10 -5 0
-10 -4 -10 -10z"/>
</g>
</svg>
